<svg id="Layer_1" data-name="Layer 1" xmlns="http://www.w3.org/2000/svg" viewBox="0 0 47.76 45.95"><defs><style>.cls-1{fill:#fff;}</style></defs><title>darsjadval</title><path class="cls-1" d="M36.3,40.69a6.15,6.15,0,0,1-3.36-1l-8.12-5.25a2.27,2.27,0,0,1-.57-3.27.7.7,0,0,1,.3-.24,5.55,5.55,0,0,1,3.58,0l-2.89-6.64a2.19,2.19,0,0,1,0-1.72,2.5,2.5,0,0,1,1.36-1.37h0a2.41,2.41,0,0,1,3.12,1.2l1.42,3.09a3.84,3.84,0,0,1,.49-.27h0a2.44,2.44,0,0,1,2.19.15,2.5,2.5,0,0,1,.93-.67h0a2.48,2.48,0,0,1,2.18.15,2.52,2.52,0,0,1,2.92-.65A2.17,2.17,0,0,1,41,25.42l2.15,6.16a6.75,6.75,0,0,1-2.51,7.52A7.28,7.28,0,0,1,37,40.65C36.77,40.67,36.54,40.69,36.3,40.69Zm-11-8.52a.93.93,0,0,0-.07.52.86.86,0,0,0,.37.54l8.12,5.25a5.14,5.14,0,0,0,6.07-.5,5.39,5.39,0,0,0,2-5.92L39.68,25.9a.7.7,0,0,0-.4-.41,1.11,1.11,0,0,0-.86,0,1.05,1.05,0,0,0-.61.68.69.69,0,0,1-.59.52.72.72,0,0,1-.71-.33A1,1,0,0,0,35.3,26h0a1,1,0,0,0-.6.67.71.71,0,0,1-.59.52.72.72,0,0,1-.71-.33,1,1,0,0,0-1.21-.34h0a1.06,1.06,0,0,0-.57.55.71.71,0,0,1-.65.43.69.69,0,0,1-.65-.41L28.41,23a1,1,0,0,0-1.28-.48h0a1.06,1.06,0,0,0-.58.58.79.79,0,0,0,0,.62l3.8,8.74a.69.69,0,0,1-.19.82.71.71,0,0,1-.85.06l-1.54-1A4,4,0,0,0,25.3,32.17Zm1.56-10.32Z"/><path class="cls-1" d="M14.21,20.18h0a.71.71,0,0,1-.57-.28l-1.23-1.61a.71.71,0,1,1,1.13-.87l.67.88,1.95-2.53a.7.7,0,0,1,1-.12.71.71,0,0,1,.13,1L14.77,19.9A.69.69,0,0,1,14.21,20.18Z"/><path class="cls-1" d="M27.6,18.88H19.52a.72.72,0,0,1,0-1.43H27.6a.72.72,0,1,1,0,1.43Z"/><path class="cls-1" d="M14.21,25.32h0a.71.71,0,0,1-.57-.28l-1.23-1.61a.72.72,0,0,1,.13-1,.71.71,0,0,1,1,.14l.67.87,1.95-2.52a.71.71,0,0,1,1-.13.72.72,0,0,1,.13,1l-2.52,3.26A.71.71,0,0,1,14.21,25.32Z"/><path class="cls-1" d="M25.78,24H19.52a.72.72,0,0,1,0-1.43h6.26a.72.72,0,0,1,0,1.43Z"/><path class="cls-1" d="M14.17,30.43h0a.75.75,0,0,1-.57-.28l-1.23-1.61a.71.71,0,0,1,1.13-.87l.67.87,2-2.52a.72.72,0,0,1,1-.13.71.71,0,0,1,.13,1l-2.51,3.26A.72.72,0,0,1,14.17,30.43Z"/><path class="cls-1" d="M27.57,29.13H19.48a.72.72,0,0,1,0-1.43h8.09a.72.72,0,0,1,0,1.43Zm-7-17.21H12.48a.72.72,0,0,1,0-1.43h8.09a.72.72,0,0,1,0,1.43Z"/><path class="cls-1" d="M30.7,38.07H9.88A1.92,1.92,0,0,1,8,36.15V7A1.92,1.92,0,0,1,9.88,5h14.2a.72.72,0,0,1,.49.22l7.84,7.83h0a.68.68,0,0,1,.18.46h0V25.28a.71.71,0,1,1-1.42,0v-11H25.27a1.92,1.92,0,0,1-1.92-1.92V6.46H9.88A.5.5,0,0,0,9.39,7v29.2a.5.5,0,0,0,.49.49H30.7a.72.72,0,0,1,0,1.43ZM24.78,7.47v4.91a.49.49,0,0,0,.49.49h4.91Z"/></svg>