<svg id="Layer_1" data-name="Layer 1" xmlns="http://www.w3.org/2000/svg" xmlns:xlink="http://www.w3.org/1999/xlink" viewBox="0 0 47.52 45.72"><defs><style>.cls-1{fill:url(#linear-gradient);}.cls-2{fill:url(#linear-gradient-2);}.cls-3{fill:url(#linear-gradient-3);}.cls-4{fill:url(#linear-gradient-4);}.cls-5{fill:url(#linear-gradient-5);}.cls-6{fill:url(#linear-gradient-6);}.cls-7{fill:url(#linear-gradient-7);}.cls-8{fill:url(#linear-gradient-8);}.cls-9{fill:url(#linear-gradient-12);}.cls-10{fill:url(#linear-gradient-13);}.cls-11{fill:url(#linear-gradient-14);}.cls-12{fill:url(#linear-gradient-15);}.cls-13{fill:url(#linear-gradient-16);}.cls-14{fill:url(#linear-gradient-17);}.cls-15{fill:url(#linear-gradient-18);}</style><linearGradient id="linear-gradient" x1="8.1" y1="15.58" x2="41.27" y2="15.58" gradientUnits="userSpaceOnUse"><stop offset="0" stop-color="#fff"/><stop offset="1" stop-color="#fff"/></linearGradient><linearGradient id="linear-gradient-2" x1="15.87" y1="27.4" x2="24.11" y2="27.4" xlink:href="#linear-gradient"/><linearGradient id="linear-gradient-3" x1="25.13" y1="27.4" x2="33.37" y2="27.4" xlink:href="#linear-gradient"/><linearGradient id="linear-gradient-4" x1="34.38" y1="28.24" x2="42.62" y2="28.24" xlink:href="#linear-gradient"/><linearGradient id="linear-gradient-5" x1="6.76" y1="28.24" x2="15" y2="28.24" xlink:href="#linear-gradient"/><linearGradient id="linear-gradient-6" x1="11.31" y1="31.37" x2="19.55" y2="31.37" xlink:href="#linear-gradient"/><linearGradient id="linear-gradient-7" x1="20.57" y1="31.37" x2="28.81" y2="31.37" xlink:href="#linear-gradient"/><linearGradient id="linear-gradient-8" x1="29.82" y1="31.37" x2="38.06" y2="31.37" xlink:href="#linear-gradient"/><linearGradient id="linear-gradient-12" x1="15.81" y1="36.12" x2="24.05" y2="36.12" xlink:href="#linear-gradient"/><linearGradient id="linear-gradient-13" x1="25.07" y1="36.12" x2="33.31" y2="36.12" xlink:href="#linear-gradient"/><linearGradient id="linear-gradient-14" x1="34.32" y1="36.12" x2="42.56" y2="36.12" xlink:href="#linear-gradient"/><linearGradient id="linear-gradient-15" x1="6.7" y1="36.27" x2="14.94" y2="36.27" xlink:href="#linear-gradient"/><linearGradient id="linear-gradient-16" x1="6.98" y1="39.09" x2="42.28" y2="39.09" xlink:href="#linear-gradient"/><linearGradient id="linear-gradient-17" x1="17.76" y1="15.52" x2="31.56" y2="15.52" xlink:href="#linear-gradient"/><linearGradient id="linear-gradient-18" x1="21.92" y1="15.72" x2="28.91" y2="15.72" xlink:href="#linear-gradient"/></defs><title>vkonferensiya</title><path class="cls-1" d="M40.56,25.92a.72.72,0,0,1-.72-.72V6.67H9.53V25.2a.72.72,0,1,1-1.43,0V6a.72.72,0,0,1,.72-.72H40.56a.71.71,0,0,1,.71.72V25.2A.71.71,0,0,1,40.56,25.92Z"/><path class="cls-2" d="M23.39,30a.71.71,0,0,1-.71-.72V27.36c0-.57-.37-1.08-.79-1.08h-3.8c-.43,0-.79.5-.79,1.08v1.87a.72.72,0,1,1-1.43,0V27.36a2.39,2.39,0,0,1,2.22-2.51h3.8a2.39,2.39,0,0,1,2.22,2.51v1.87A.72.72,0,0,1,23.39,30Z"/><path class="cls-3" d="M32.65,30a.71.71,0,0,1-.71-.72V27.36c0-.57-.37-1.08-.8-1.08H27.35c-.43,0-.79.5-.79,1.08v1.87a.72.72,0,1,1-1.43,0V27.36a2.38,2.38,0,0,1,2.22-2.51h3.79a2.39,2.39,0,0,1,2.23,2.51v1.87A.72.72,0,0,1,32.65,30Z"/><path class="cls-4" d="M41.91,31.62a.71.71,0,0,1-.72-.71V27.36c0-.57-.37-1.08-.79-1.08H36.6c-.43,0-.79.5-.79,1.08v1.87a.72.72,0,1,1-1.43,0V27.36a2.39,2.39,0,0,1,2.22-2.51h3.8a2.39,2.39,0,0,1,2.22,2.51v3.55A.71.71,0,0,1,41.91,31.62Z"/><path class="cls-5" d="M7.47,31.64a.71.71,0,0,1-.71-.72V27.36A2.38,2.38,0,0,1,9,24.85h3.79A2.39,2.39,0,0,1,15,27.36v1.87a.72.72,0,0,1-1.44,0V27.36c0-.57-.37-1.08-.79-1.08H9c-.43,0-.79.5-.79,1.08v3.56A.72.72,0,0,1,7.47,31.64Z"/><path class="cls-6" d="M18.84,33.92a.72.72,0,0,1-.72-.72V31.34c0-.58-.37-1.09-.79-1.09H13.54c-.43,0-.8.5-.8,1.09V33.2a.72.72,0,1,1-1.43,0V31.34a2.39,2.39,0,0,1,2.23-2.52h3.79a2.38,2.38,0,0,1,2.22,2.52V33.2A.71.71,0,0,1,18.84,33.92Z"/><path class="cls-7" d="M28.09,33.92a.71.71,0,0,1-.71-.72V31.34c0-.58-.37-1.09-.79-1.09h-3.8c-.43,0-.79.5-.79,1.09V33.2a.72.72,0,1,1-1.43,0V31.34a2.39,2.39,0,0,1,2.22-2.52h3.8a2.39,2.39,0,0,1,2.22,2.52V33.2A.72.72,0,0,1,28.09,33.92Z"/><path class="cls-8" d="M37.35,33.92a.72.72,0,0,1-.72-.72V31.34c0-.58-.37-1.09-.79-1.09H32.05c-.43,0-.8.5-.8,1.09V33.2a.72.72,0,1,1-1.43,0V31.34a2.39,2.39,0,0,1,2.23-2.52h3.79a2.38,2.38,0,0,1,2.22,2.52V33.2A.71.71,0,0,1,37.35,33.92Z"/><path class="cls-6" d="M18.84,33.92a.72.72,0,0,1-.72-.72V31.34c0-.58-.37-1.09-.79-1.09H13.54c-.43,0-.8.5-.8,1.09V33.2a.72.72,0,1,1-1.43,0V31.34a2.39,2.39,0,0,1,2.23-2.52h3.79a2.38,2.38,0,0,1,2.22,2.52V33.2A.71.71,0,0,1,18.84,33.92Z"/><path class="cls-7" d="M28.09,33.92a.71.71,0,0,1-.71-.72V31.34c0-.58-.37-1.09-.79-1.09h-3.8c-.43,0-.79.5-.79,1.09V33.2a.72.72,0,1,1-1.43,0V31.34a2.39,2.39,0,0,1,2.22-2.52h3.8a2.39,2.39,0,0,1,2.22,2.52V33.2A.72.72,0,0,1,28.09,33.92Z"/><path class="cls-8" d="M37.35,33.92a.72.72,0,0,1-.72-.72V31.34c0-.58-.37-1.09-.79-1.09H32.05c-.43,0-.8.5-.8,1.09V33.2a.72.72,0,1,1-1.43,0V31.34a2.39,2.39,0,0,1,2.23-2.52h3.79a2.38,2.38,0,0,1,2.22,2.52V33.2A.71.71,0,0,1,37.35,33.92Z"/><path class="cls-9" d="M23.34,39.51a.71.71,0,0,1-.72-.71V35.25c0-.58-.37-1.09-.79-1.09H18c-.43,0-.79.5-.79,1.09V38.8a.72.72,0,0,1-1.43,0V35.25A2.39,2.39,0,0,1,18,32.73h3.8a2.39,2.39,0,0,1,2.22,2.52V38.8A.71.71,0,0,1,23.34,39.51Z"/><path class="cls-10" d="M32.59,39.51a.71.71,0,0,1-.71-.71V35.25c0-.58-.37-1.09-.8-1.09H27.29c-.43,0-.79.5-.79,1.09V38.8a.72.72,0,0,1-1.43,0V35.25a2.38,2.38,0,0,1,2.22-2.52h3.79a2.39,2.39,0,0,1,2.23,2.52V38.8A.71.71,0,0,1,32.59,39.51Z"/><path class="cls-11" d="M41.85,39.51a.71.71,0,0,1-.72-.71V35.25c0-.58-.37-1.09-.79-1.09h-3.8c-.43,0-.79.5-.79,1.09V38.8a.72.72,0,0,1-1.43,0V35.25a2.39,2.39,0,0,1,2.22-2.52h3.8a2.39,2.39,0,0,1,2.22,2.52V38.8A.71.71,0,0,1,41.85,39.51Z"/><path class="cls-12" d="M7.41,39.81a.71.71,0,0,1-.71-.72V35.25a2.38,2.38,0,0,1,2.22-2.52h3.79a2.39,2.39,0,0,1,2.23,2.52v3.82a.72.72,0,1,1-1.43,0V35.25c0-.58-.37-1.09-.8-1.09H8.92c-.43,0-.79.5-.79,1.09v3.84A.72.72,0,0,1,7.41,39.81Z"/><path class="cls-13" d="M41.56,39.81H7.69a.72.72,0,0,1,0-1.43H41.56a.72.72,0,1,1,0,1.43Z"/><path class="cls-14" d="M24.67,22.43a7,7,0,0,1-1.8-.24A6.9,6.9,0,0,1,21.21,9.55h0a6.9,6.9,0,1,1,3.46,12.88ZM21.92,10.79a5.48,5.48,0,1,0,4.15-.55,5.39,5.39,0,0,0-4.15.55Zm-.35-.62Z"/><path class="cls-15" d="M22.64,19.64a.74.74,0,0,1-.36-.09.73.73,0,0,1-.36-.62V12.5a.73.73,0,0,1,.36-.62.75.75,0,0,1,.71,0l5.57,3.22a.7.7,0,0,1,.35.62.72.72,0,0,1-.35.62L23,19.55A.73.73,0,0,1,22.64,19.64Zm.71-5.9v4l3.42-2Z"/></svg>