<svg id="Layer_1" data-name="Layer 1" xmlns="http://www.w3.org/2000/svg" xmlns:xlink="http://www.w3.org/1999/xlink" viewBox="0 0 47.52 45.72"><defs><style>.cls-1{fill:url(#linear-gradient);}</style><linearGradient id="linear-gradient" x1="6.08" y1="22.22" x2="40.93" y2="22.22" gradientUnits="userSpaceOnUse"><stop offset="0" stop-color="#fff"/><stop offset="1" stop-color="#fff"/></linearGradient></defs><title>virtpriyom</title><path class="cls-1" d="M39.74,37.9H7.27a1.31,1.31,0,0,1-1.1-.62.85.85,0,0,1,.06-.87l3.4-4.79a2,2,0,0,1-.32-1.07V14.61a2,2,0,0,1,2-2h5.26a.66.66,0,0,1,.66.66.65.65,0,0,1-.66.65H11.3a.69.69,0,0,0-.68.69V30.55a.69.69,0,0,0,.67.68h1.1v0l-.53-6.09v-.59a3,3,0,0,1,2.61-2.69,18.47,18.47,0,0,0,4.94-1.57.7.7,0,0,1,.28-.12h.06a.66.66,0,0,1,.3,1.28,21.73,21.73,0,0,1-5.31,1.7c-.58.12-1.57.56-1.57,1.41V25l.53,6.07a.57.57,0,0,1,0,.13h7.42a.86.86,0,0,1,0-.16l1.11-7-.91-2.44A.7.7,0,0,1,21.4,21a.66.66,0,0,1,.54-.28h3.13a.69.69,0,0,1,.54.28.66.66,0,0,1,.07.61L24.77,24l1.09,7a.43.43,0,0,1,0,.16h7.45a.29.29,0,0,1,0-.13L33.84,25v-.5c0-.85-1-1.29-1.58-1.41A22,22,0,0,1,27,21.42a.66.66,0,0,1,.3-1.28h.07a.77.77,0,0,1,.28.12,18.25,18.25,0,0,0,4.93,1.57,3,3,0,0,1,2.62,2.69v.53s0,0,0,.06l-.53,6.09v0h1.1a.7.7,0,0,0,.67-.68V14.61a.7.7,0,0,0-.68-.69H30.47a.65.65,0,0,1-.65-.65.66.66,0,0,1,.65-.66H35.7a2,2,0,0,1,2,2V30.55a2.06,2.06,0,0,1-.31,1.07l3.39,4.78a.83.83,0,0,1,.07.86A1.29,1.29,0,0,1,39.74,37.9Zm-32-1.31H39.29l-2.94-4.16a2,2,0,0,1-.64.11H11.29a1.9,1.9,0,0,1-.63-.11Zm14.7-5.36h2.15L23.5,24.39ZM22.88,22l.62,1.67L24.13,22Zm.61-2.08h0c-1.7-.08-3.37-1.61-4.13-3.7a1.28,1.28,0,0,1-1.15-1.08l-.28-1.88A1.29,1.29,0,0,1,18.47,12v0a3.59,3.59,0,0,1,0-.47v-.69A3.69,3.69,0,0,1,22,7.07a1.33,1.33,0,0,1,.47-.37A4.2,4.2,0,0,1,25.38,7a7,7,0,0,1,.83.38,3.75,3.75,0,0,1,2.19,3.44v.69c0,.11,0,.22,0,.33l.09.23A1.3,1.3,0,0,1,29,13.27l-.29,1.88a1.27,1.27,0,0,1-.5.84,1.15,1.15,0,0,1-.51.22c-.75,2.1-2.43,3.63-4.14,3.72Zm-3.7-5.06a.65.65,0,0,1,.63.48c.49,1.79,1.8,3.18,3.07,3.27,1.26-.08,2.57-1.48,3.06-3.25a.65.65,0,0,1,.74-.47h.1l.27-1.81-.16,0a.67.67,0,0,1-.45-.3.68.68,0,0,1-.07-.54L27,12a3.69,3.69,0,0,0-1.36-1.44,4.41,4.41,0,0,1-3.84.85c-1.26-.14-1.76-.16-2,.61a1.33,1.33,0,0,0,.05.19.68.68,0,0,1-.07.54.67.67,0,0,1-.46.3l-.15,0,.27,1.81.22,0Zm-.32.09Zm2.59-6.58a2.32,2.32,0,0,0-2.24,1.86,4.53,4.53,0,0,1,2.16-.1c1.13.13,2.19.25,3-.72a.65.65,0,0,1,.64-.22,3.06,3.06,0,0,1,1.27.64,2.36,2.36,0,0,0-1.24-1.28l-.06,0a5.68,5.68,0,0,0-.7-.33,3.77,3.77,0,0,0-1.85-.33.67.67,0,0,1-.16.3.68.68,0,0,1-.48.21Zm1-.7Zm.41,9.78A1.83,1.83,0,0,1,22.2,17a.66.66,0,0,1,.91-.95A.69.69,0,0,0,24,16a.66.66,0,0,1,.81,1A2.12,2.12,0,0,1,23.47,17.46Zm1.6-3.27a.66.66,0,0,1-.66-.66v-.48a.66.66,0,1,1,1.31,0v.48A.66.66,0,0,1,25.07,14.19Zm-3.13,0a.67.67,0,0,1-.66-.66v-.48a.67.67,0,0,1,.66-.66.66.66,0,0,1,.65.66v.48A.66.66,0,0,1,21.94,14.19Z"/></svg>